<svg width="17" height="18" viewBox="0 0 17 18" fill="none" xmlns="http://www.w3.org/2000/svg">
<path d="M8.9099 7.52766C8.11044 8.7116 7.46162 8.73072 7.25562 10.6267C7.0074 12.9113 8.56178 14.807 10.7051 15.0665C12.8484 15.326 14.7497 14.029 14.9979 11.7444C15.2039 9.84843 14.5164 9.58475 13.9349 8.19751C13.2903 6.65986 14.0522 4.64485 11.7884 4.37079C9.33058 4.07325 9.85077 6.13427 8.9099 7.52766Z" fill="#A4D31F"/>
<path fill-rule="evenodd" clip-rule="evenodd" d="M8.05849 7.9621C8.22983 7.76994 8.40663 7.56227 8.59163 7.28829C8.79205 6.99148 8.92131 6.6492 9.04037 6.27378C9.06614 6.19251 9.09197 6.10758 9.1184 6.02065C9.20743 5.72785 9.30335 5.41237 9.42756 5.13754C9.59648 4.76382 9.84039 4.40639 10.2519 4.17769C10.6575 3.9523 11.1732 3.88127 11.8328 3.96111C12.4547 4.0364 12.9185 4.2378 13.2536 4.56568C13.5874 4.8923 13.7513 5.30362 13.8476 5.7102C13.919 6.01129 13.9596 6.34362 13.9976 6.65432C14.0092 6.74939 14.0206 6.84243 14.0325 6.93193C14.0861 7.33362 14.1536 7.70079 14.2919 8.03062C14.4273 8.35365 14.5694 8.61281 14.7093 8.8568C14.7313 8.89525 14.7537 8.9339 14.7761 8.97276C14.8927 9.17434 15.0127 9.38193 15.113 9.60023C15.3686 10.1567 15.496 10.777 15.3858 11.7913C15.1084 14.3443 12.9758 15.7564 10.6604 15.4761C8.32033 15.1928 6.59259 13.1086 6.86737 10.5797C6.97672 9.57322 7.21101 9.01823 7.55198 8.5566C7.68215 8.38035 7.82788 8.21853 7.96801 8.0629C7.99851 8.02903 8.02874 7.99546 8.05849 7.9621ZM8.24637 8.35234C8.4492 8.12695 8.67285 7.87841 8.90972 7.52761C9.20185 7.09498 9.35313 6.598 9.49643 6.12722C9.81466 5.08176 10.0935 4.16559 11.7883 4.37075C13.347 4.55945 13.4712 5.57357 13.6078 6.68891C13.6696 7.19339 13.7339 7.71858 13.9347 8.19747C14.1041 8.60166 14.2826 8.91047 14.4453 9.19206C14.841 9.87693 15.1437 10.4008 14.9977 11.7443C14.7495 14.0289 12.8482 15.3259 10.7049 15.0665C8.5616 14.807 7.00722 12.9112 7.25545 10.6266C7.40041 9.29244 7.76466 8.88766 8.24637 8.35234Z" fill="#5B7C14"/>
<path fill-rule="evenodd" clip-rule="evenodd" d="M8.07803 13.5994C8.38874 13.8005 8.73189 13.9617 9.10178 14.0747C11.174 14.7082 13.2537 13.7644 13.8597 11.5555C14.2161 10.2566 14.0004 9.6867 13.7185 8.94172C13.6027 8.63541 13.4755 8.2995 13.3724 7.87112C13.2502 7.36358 13.2698 6.83443 13.2887 6.32614C13.3025 5.95313 13.3159 5.59136 13.2726 5.25762C13.4819 5.66209 13.5434 6.16432 13.6077 6.68895C13.6695 7.19344 13.7338 7.71863 13.9345 8.19751C14.104 8.60171 14.2824 8.91051 14.4451 9.19211C14.8409 9.87698 15.1436 10.4009 14.9976 11.7444C14.7494 14.029 12.8481 15.326 10.7048 15.0665C9.63015 14.9364 8.70358 14.395 8.07803 13.5994Z" fill="#92BC1B"/>
<path d="M9.94328 8.0741C10.3372 8.38066 10.2678 9.18548 9.78846 9.87173C9.30908 10.558 8.60118 10.8658 8.20731 10.5592C7.81344 10.2527 7.88275 9.44784 8.36213 8.76159C8.84151 8.07534 9.54941 7.76754 9.94328 8.0741Z" fill="#BBEB35"/>
<path d="M11.2205 4.74626C11.3567 4.90845 11.2614 5.23218 11.0078 5.46933C10.7542 5.70648 10.4382 5.76725 10.3021 5.60506C10.166 5.44288 10.2613 5.11915 10.5149 4.882C10.7685 4.64485 11.0844 4.58408 11.2205 4.74626Z" fill="#BBEB35"/>
<path fill-rule="evenodd" clip-rule="evenodd" d="M9.0476 9.04575C9.2039 9.20271 9.21007 9.4637 9.06137 9.62869C8.98823 9.70985 8.94645 9.77947 8.92379 9.83603C8.83975 10.0458 8.61055 10.1439 8.41185 10.0552C8.21316 9.96645 8.12021 9.72452 8.20425 9.51479C8.27114 9.34785 8.37225 9.19686 8.49534 9.06029C8.64404 8.8953 8.89129 8.88879 9.0476 9.04575Z" fill="white"/>
<path d="M14.8391 2.29686C14.8391 2.29686 14.0686 3.41138 13.3431 3.70923C12.6176 4.00708 11.774 3.55524 11.774 3.55524C11.774 3.55524 12.1067 2.62048 12.8322 2.32263C13.5577 2.02478 14.8391 2.29686 14.8391 2.29686Z" fill="#87D623"/>
<path fill-rule="evenodd" clip-rule="evenodd" d="M15.1545 2.53987L14.8389 2.29681L14.9159 1.89258C15.0465 1.9203 15.1547 2.01633 15.203 2.14735C15.2512 2.27837 15.233 2.42632 15.1545 2.53987ZM14.3957 2.22649C14.6589 2.2586 14.8389 2.29681 14.8389 2.29681C14.8389 2.29681 14.7307 2.45336 14.5572 2.66479C14.2677 3.0175 13.7965 3.52296 13.3429 3.70918C12.6174 4.00703 11.7738 3.55519 11.7738 3.55519C11.7738 3.55519 12.1065 2.62044 12.832 2.32259C13.2856 2.13637 13.9565 2.17293 14.3957 2.22649ZM11.7738 3.55519C11.4081 3.41019 11.4082 3.41007 11.4082 3.40995L11.4083 3.40969L11.4085 3.40909L11.4091 3.40764L11.4105 3.40373C11.4116 3.40066 11.4131 3.39671 11.4149 3.39191C11.4185 3.38231 11.4235 3.36932 11.43 3.35332C11.4428 3.32138 11.4614 3.27724 11.4858 3.22414C11.5346 3.11843 11.6078 2.97452 11.7074 2.81934C11.9015 2.51689 12.2217 2.13073 12.6904 1.93831C13.1397 1.75383 13.7168 1.75538 14.1351 1.78671C14.3533 1.80305 14.5466 1.82919 14.6854 1.85121C14.755 1.86225 14.8114 1.87233 14.851 1.87977C14.8708 1.8835 14.8864 1.88656 14.8973 1.88877L14.9103 1.8914L14.914 1.89218L14.9156 1.89252L14.9159 1.89258C14.916 1.8926 14.9159 1.89258 14.8389 2.29681C15.1545 2.53987 15.1545 2.53981 15.1545 2.53987L15.1543 2.54014L15.1533 2.54153L15.151 2.54479L15.1432 2.55596C15.1365 2.56541 15.127 2.5788 15.1148 2.59566C15.0904 2.62936 15.0552 2.67702 15.011 2.73481C14.9227 2.85006 14.797 3.00718 14.6466 3.17479C14.3583 3.49622 13.9338 3.90899 13.4845 4.09347C13.0158 4.28589 12.5326 4.22956 12.1959 4.14501C12.0231 4.10164 11.877 4.04781 11.7734 4.00462C11.7214 3.98293 11.6795 3.96364 11.6495 3.94925C11.6346 3.94205 11.6225 3.93605 11.6137 3.93156C11.6093 3.92931 11.6057 3.92744 11.6029 3.92599L11.5994 3.92411L11.598 3.92342L11.5973 3.92301C11.5972 3.92295 11.5971 3.92289 11.7738 3.55519ZM11.4081 3.41019L11.7738 3.55519L11.5971 3.92289C11.4195 3.82779 11.3381 3.60694 11.4081 3.41019Z" fill="#156319"/>
<path d="M13.2955 3.59225C13.9123 3.33902 14.5813 2.42914 14.5813 2.42914C13.22 2.62478 12.2768 3.22392 11.9753 3.49904C11.9753 3.49904 12.6787 3.84549 13.2955 3.59225Z" fill="#79C01E"/>
<path d="M10.8422 2.30043C11.0804 2.43965 11.5774 3.54134 11.69 4.08403C11.6994 4.12931 11.8177 4.09748 11.81 4.05799C11.7935 3.56769 11.6422 2.37747 11.3798 1.95513C11.0205 1.93431 10.8546 2.19486 10.8422 2.30043Z" fill="#8C5936"/>
<path fill-rule="evenodd" clip-rule="evenodd" d="M10.6327 2.64876C10.5056 2.56392 10.4354 2.40884 10.4539 2.24992C10.4757 2.06359 10.591 1.88345 10.7333 1.76084C10.8946 1.62194 11.121 1.52716 11.4006 1.54336C11.5244 1.55054 11.6377 1.6194 11.7058 1.72891C11.8021 1.8839 11.8736 2.08205 11.9286 2.27315C11.9854 2.47078 12.0325 2.69019 12.0705 2.90545C12.1444 3.32369 12.1886 3.75353 12.1991 4.02367C12.2202 4.25097 12.0674 4.38574 12.0256 4.41801C11.9612 4.4676 11.8938 4.4923 11.8434 4.50456C11.794 4.51655 11.7177 4.52715 11.6318 4.50782C11.5496 4.48933 11.3574 4.4115 11.3078 4.17215C11.2612 3.94766 11.1242 3.57067 10.9621 3.22288C10.8825 3.05209 10.8025 2.90053 10.7324 2.78807C10.6972 2.73163 10.6683 2.69115 10.6468 2.66502C10.6405 2.65729 10.6358 2.65204 10.6327 2.64876ZM11.8094 4.05792C11.8094 4.05736 11.8094 4.0568 11.8093 4.05624C11.8061 3.96019 11.7976 3.83751 11.7842 3.69913C11.7601 3.44969 11.7199 3.14926 11.6645 2.86183C11.5935 2.4931 11.4977 2.14579 11.3791 1.95506C11.2744 1.94899 11.1861 1.96684 11.1132 1.9978C11.0358 2.03069 10.9758 2.07837 10.9321 2.12788C10.8759 2.19157 10.8465 2.25828 10.8416 2.30036C10.9558 2.36708 11.1293 2.6548 11.2916 2.99611C11.405 3.23489 11.513 3.49989 11.5911 3.7338C11.6313 3.85425 11.6637 3.96647 11.6848 4.06261C11.6864 4.06982 11.6879 4.07694 11.6894 4.08397C11.6988 4.12924 11.8171 4.09741 11.8094 4.05792ZM11.4185 4.05687C11.4185 4.08325 11.421 4.11129 11.4268 4.14095C11.4224 4.11844 11.4198 4.09558 11.419 4.07261C11.4189 4.06746 11.4187 4.06221 11.4185 4.05687Z" fill="#583A24"/>
<path d="M11.4554 2.00955C11.5102 2.11306 11.416 2.27865 11.2451 2.37941C11.0742 2.48017 10.8912 2.47794 10.8365 2.37443C10.7817 2.27092 10.8759 2.10533 11.0468 2.00457C11.2177 1.90381 11.4007 1.90604 11.4554 2.00955Z" fill="#C27A49"/>
<path d="M13.5898 10.5437C13.5685 10.7404 13.4 10.8816 13.2137 10.859C13.0273 10.8365 12.8935 10.6587 12.9149 10.462C12.9363 10.2652 13.1047 10.1241 13.2911 10.1466C13.4774 10.1692 13.6112 10.347 13.5898 10.5437Z" fill="#83A918"/>
<path d="M14.5248 11.3787C14.5034 11.5754 14.335 11.7166 14.1486 11.694C13.9623 11.6715 13.8285 11.4937 13.8499 11.297C13.8713 11.1002 14.0397 10.959 14.226 10.9816C14.4124 11.0042 14.5462 11.1819 14.5248 11.3787Z" fill="#83A918"/>
<path d="M14.4819 10.2005C14.4658 10.3481 14.3395 10.454 14.1997 10.4371C14.06 10.4201 13.9596 10.2868 13.9757 10.1393C13.9917 9.99172 14.118 9.88583 14.2578 9.90275C14.3976 9.91967 14.4979 10.053 14.4819 10.2005Z" fill="#83A918"/>
<path d="M14.3894 12.6254C14.368 12.8221 14.1996 12.9633 14.0132 12.9407C13.8268 12.9182 13.6931 12.7404 13.7144 12.5437C13.7358 12.347 13.9042 12.2058 14.0906 12.2283C14.277 12.2509 14.4107 12.4287 14.3894 12.6254Z" fill="#83A918"/>
<path d="M13.4544 11.7904C13.433 11.9872 13.2646 12.1283 13.0782 12.1058C12.8918 12.0832 12.7581 11.9054 12.7794 11.7087C12.8008 11.512 12.9692 11.3708 13.1556 11.3934C13.342 11.4159 13.4757 11.5937 13.4544 11.7904Z" fill="#83A918"/>
<path d="M13.5983 13.6123C13.577 13.8091 13.4085 13.9502 13.2222 13.9277C13.0358 13.9051 12.902 13.7273 12.9234 13.5306C12.9448 13.3339 13.1132 13.1927 13.2996 13.2153C13.4859 13.2378 13.6197 13.4156 13.5983 13.6123Z" fill="#83A918"/>
<path d="M12.644 12.9554C12.6226 13.1522 12.4542 13.2934 12.2678 13.2708C12.0814 13.2482 11.9477 13.0705 11.9691 12.8737C11.9904 12.677 12.1588 12.5358 12.3452 12.5584C12.5316 12.5809 12.6654 12.7587 12.644 12.9554Z" fill="#83A918"/>
<path d="M12.6676 14.3117C12.6516 14.4592 12.5252 14.5651 12.3855 14.5482C12.2457 14.5313 12.1454 14.3979 12.1614 14.2504C12.1774 14.1028 12.3037 13.9969 12.4435 14.0139C12.5833 14.0308 12.6836 14.1641 12.6676 14.3117Z" fill="#83A918"/>
<path d="M7.42578 6.90892C7.42578 6.90892 7.38648 8.23975 6.90726 8.83103C6.32967 9.54368 5.21773 9.27561 5.21773 9.27561C5.21773 9.27561 5.13515 8.22193 5.79203 7.51786C6.29732 6.97626 7.42578 6.90892 7.42578 6.90892Z" fill="#10BC17"/>
<path fill-rule="evenodd" clip-rule="evenodd" d="M7.71633 6.91846L7.42576 6.90889L7.40935 6.60253C7.49075 6.59767 7.57033 6.62911 7.6287 6.68918C7.68707 6.74926 7.71887 6.83244 7.71633 6.91846ZM7.13323 6.94343C7.30876 6.91588 7.42576 6.90889 7.42576 6.90889C7.42576 6.90889 7.42214 7.03129 7.40374 7.21834C7.36146 7.64807 7.24112 8.41904 6.90724 8.831C6.32965 9.54365 5.21771 9.27558 5.21771 9.27558C5.21771 9.27558 5.13513 8.2219 5.79201 7.51783C6.1346 7.15063 6.76365 7.00143 7.13323 6.94343ZM5.21771 9.27558C4.928 9.30088 4.92799 9.30077 4.92798 9.30066L4.92796 9.30041L4.92791 9.29984L4.92781 9.2984L4.92753 9.29437C4.92731 9.29118 4.92704 9.28697 4.92675 9.28179C4.92617 9.27144 4.92548 9.25718 4.92491 9.23939C4.92376 9.20382 4.92304 9.15392 4.92445 9.0925C4.92726 8.97004 4.93859 8.79979 4.97265 8.60502C5.04018 8.21895 5.20122 7.71374 5.58488 7.30252C5.89857 6.96628 6.37683 6.79847 6.73268 6.71134C6.91766 6.66605 7.08495 6.63905 7.20602 6.62332C7.26674 6.61543 7.31634 6.61031 7.3513 6.60712C7.3688 6.60553 7.38267 6.60442 7.39248 6.60369C7.39739 6.60332 7.40128 6.60305 7.40411 6.60286L7.40755 6.60264L7.40906 6.60254L7.40935 6.60253C7.40942 6.60252 7.40935 6.60253 7.42576 6.90889C7.71633 6.91846 7.71633 6.91839 7.71633 6.91846L7.71631 6.91914L7.71627 6.92031L7.71614 6.92409C7.71603 6.92724 7.71587 6.93164 7.71564 6.93723C7.71518 6.94841 7.71446 6.96435 7.71338 6.98455C7.71122 7.02493 7.7076 7.08244 7.70172 7.15298C7.68999 7.29368 7.66909 7.48812 7.63227 7.70287C7.56154 8.11532 7.422 8.6679 7.12814 9.03048C6.76494 9.47861 6.24776 9.60262 5.8632 9.62685C5.66687 9.63922 5.49216 9.62661 5.36668 9.61111C5.30361 9.60331 5.25213 9.59468 5.21556 9.58779C5.19725 9.58435 5.18262 9.58132 5.17207 9.57904C5.16679 9.5779 5.16252 9.57695 5.15933 9.57622L5.15534 9.57529L5.15395 9.57497L5.15319 9.57478C5.15308 9.57476 5.15298 9.57473 5.21771 9.27558ZM4.928 9.30088L5.21771 9.27558L5.15298 9.57473C5.02946 9.54495 4.93844 9.43416 4.928 9.30088Z" fill="#156319"/>
<path d="M6.71202 8.77912C7.11683 8.34523 7.22991 7.25601 7.22991 7.25601C6.19417 7.90452 5.73523 8.82645 5.5967 9.16729C5.5967 9.16729 6.30722 9.21302 6.71202 8.77912Z" fill="#07A00E"/>
<path d="M3.0258 8.5069C3.0258 8.5069 3.89747 8.05909 4.44993 8.19167C5.11578 8.35147 5.34076 9.24575 5.34076 9.24575C5.34076 9.24575 4.69129 9.68194 4.0026 9.46214C3.47285 9.29306 3.0258 8.5069 3.0258 8.5069Z" fill="#13CA1B"/>
<path fill-rule="evenodd" clip-rule="evenodd" d="M2.89879 8.23102L3.02601 8.50693L2.77676 8.66486C2.7348 8.59107 2.72412 8.50208 2.74733 8.41959C2.77053 8.3371 2.82549 8.26868 2.89879 8.23102ZM3.19413 8.76285C3.08838 8.61662 3.02601 8.50693 3.02601 8.50693C3.02601 8.50693 3.13364 8.45164 3.29724 8.38566C3.5992 8.26388 4.09181 8.10571 4.45013 8.1917C5.11598 8.35151 5.34097 9.24578 5.34097 9.24578C5.34097 9.24578 4.69149 9.68197 4.00281 9.46217C3.67093 9.35625 3.37151 9.00813 3.19413 8.76285ZM5.34097 9.24578C5.49702 9.50467 5.49693 9.50473 5.49684 9.50479L5.49665 9.50492L5.49622 9.50521L5.49517 9.50591L5.49235 9.50777C5.49015 9.50921 5.48731 9.51105 5.48384 9.51326C5.47692 9.51768 5.46749 9.52357 5.45571 9.53066C5.43217 9.54483 5.39911 9.56385 5.35775 9.58548C5.27534 9.62857 5.15824 9.68287 5.01649 9.72941C4.73616 9.82145 4.33835 9.88984 3.91867 9.7559C3.57051 9.64478 3.28075 9.348 3.09568 9.12164C2.99841 9.00268 2.91973 8.89014 2.8653 8.80735C2.83798 8.76579 2.81648 8.73129 2.80153 8.70667C2.79405 8.69436 2.78819 8.68448 2.78403 8.67741L2.77909 8.66891L2.77759 8.66632L2.77709 8.66544L2.77676 8.66486C2.77672 8.66479 2.77676 8.66486 3.02601 8.50693C2.89879 8.23102 2.89874 8.23105 2.89879 8.23102L2.89933 8.23075L2.90018 8.23031L2.90284 8.22896L2.91186 8.22443C2.91949 8.22063 2.93029 8.21531 2.94398 8.20873C2.97134 8.19557 3.01034 8.17729 3.05862 8.15596C3.15484 8.11346 3.28959 8.05809 3.44359 8.00691C3.73592 7.90975 4.15698 7.80666 4.51458 7.89248C4.95911 7.99917 5.23673 8.34527 5.39403 8.61992C5.47477 8.76091 5.53078 8.89483 5.5667 8.99328C5.58477 9.04282 5.59806 9.08423 5.60706 9.11414C5.61157 9.12912 5.61502 9.14129 5.61748 9.15022C5.61871 9.15469 5.61969 9.15836 5.62043 9.16117L5.62136 9.16475L5.62169 9.16605L5.62188 9.16681C5.62191 9.16692 5.62193 9.16702 5.34097 9.24578ZM5.49702 9.50467L5.34097 9.24578L5.62193 9.16702C5.65445 9.29628 5.60392 9.43288 5.49702 9.50467Z" fill="#156319"/>
<path fill-rule="evenodd" clip-rule="evenodd" d="M3.15916 8.44427C3.07579 8.48141 3.02596 8.50701 3.02596 8.50701C3.02596 8.50701 3.473 9.29317 4.00276 9.46225C4.69145 9.68205 5.34092 9.24585 5.34092 9.24585C5.34092 9.24585 5.28727 9.0326 5.15483 8.79576C4.93907 8.92513 4.47023 9.14803 3.95833 9.02347C3.64933 8.94828 3.35456 8.66904 3.15916 8.44427Z" fill="#33ED3B"/>
<path d="M8.94854 11.7153C9.29753 13.5508 8.17077 15.3374 6.43187 15.7058C4.69297 16.0742 3.0004 14.8848 2.65142 13.0493C2.30244 11.2138 3.42919 9.42721 5.16809 9.05884C6.907 8.69047 8.59956 9.87982 8.94854 11.7153Z" fill="#FE9F81"/>
<path fill-rule="evenodd" clip-rule="evenodd" d="M9.23399 11.6549C9.61457 13.6566 8.38582 15.6049 6.4895 16.0067C4.59318 16.4084 2.7474 15.1114 2.36682 13.1097C1.98625 11.108 3.215 9.1597 5.11132 8.75798C7.00764 8.35626 8.85342 9.65328 9.23399 11.6549ZM6.4323 15.7058C8.1712 15.3374 9.29795 13.5508 8.94897 11.7153C8.59999 9.87982 6.90742 8.69047 5.16852 9.05884C3.42962 9.42721 2.30287 11.2138 2.65185 13.0493C3.00083 14.8848 4.6934 16.0742 6.4323 15.7058Z" fill="#AB442D"/>
<path fill-rule="evenodd" clip-rule="evenodd" d="M7.71884 15.1016C6.75195 15.1486 5.62855 14.3733 4.94489 13.084C4.10225 11.4949 4.23936 9.71297 5.23897 9.04478C5.21541 9.04921 5.19183 9.05392 5.16825 9.05891C3.42935 9.42728 2.30259 11.2139 2.65157 13.0494C3.00056 14.8849 4.69312 16.0742 6.43202 15.7059C6.91416 15.6037 7.34923 15.3926 7.71884 15.1016Z" fill="#FF7E6C"/>
<path d="M6.01682 9.39769C6.44114 9.53347 6.62872 10.1882 6.43578 10.86C6.24284 11.5319 5.74244 11.9665 5.31812 11.8307C4.89379 11.6949 4.70621 11.0402 4.89915 10.3683C5.0921 9.6965 5.59249 9.26192 6.01682 9.39769Z" fill="#FEC0AC"/>
<path fill-rule="evenodd" clip-rule="evenodd" d="M5.42951 10.4369C5.58472 10.4802 5.67725 10.6482 5.63618 10.812C5.60815 10.9238 5.60404 11.0295 5.62111 11.1321C5.64886 11.2991 5.54317 11.4581 5.38503 11.4874C5.2269 11.5167 5.0762 11.4052 5.04845 11.2382C5.01614 11.044 5.02561 10.8485 5.07411 10.655C5.11518 10.4912 5.27429 10.3935 5.42951 10.4369Z" fill="white"/>
<path fill-rule="evenodd" clip-rule="evenodd" d="M5.13208 8.97939C5.50846 8.73395 5.94242 8.68747 6.31568 8.73978C6.39526 8.75093 6.45121 8.82807 6.44064 8.91207C6.43008 8.99607 6.357 9.05512 6.27742 9.04397C5.95135 8.99827 5.58956 9.04176 5.28487 9.24045C4.98425 9.43649 4.72106 9.79534 4.60719 10.4195C4.37594 11.6869 4.8507 12.7202 5.10571 13.0658C5.15503 13.1326 5.14368 13.229 5.08034 13.2811C5.01701 13.3331 4.92568 13.3212 4.87635 13.2543C4.57981 12.8524 4.07179 11.7313 4.32173 10.3614C4.44844 9.66692 4.75164 9.22748 5.13208 8.97939Z" fill="#AB442D"/>
<path d="M6.11338 15.0034C6.22709 15.1318 6.22062 15.3333 6.09892 15.4533C5.97723 15.5733 5.7864 15.5665 5.67269 15.438C5.55898 15.3096 5.56545 15.1081 5.68714 14.9881C5.80884 14.8681 5.99967 14.8749 6.11338 15.0034Z" fill="#EC6B59"/>
<path d="M7.02256 14.7014C7.13627 14.8298 7.1298 15.0313 7.0081 15.1513C6.88641 15.2713 6.69558 15.2645 6.58187 15.136C6.46816 15.0076 6.47463 14.8061 6.59632 14.6861C6.71802 14.5661 6.90885 14.5729 7.02256 14.7014Z" fill="#EC6B59"/>
<path d="M6.44124 13.9648C6.52948 14.0645 6.52446 14.2208 6.43001 14.3139C6.33557 14.4071 6.18748 14.4018 6.09923 14.3021C6.01099 14.2024 6.01601 14.0461 6.11045 13.9529C6.20489 13.8598 6.35299 13.8651 6.44124 13.9648Z" fill="#EC6B59"/>
<path d="M7.60432 14.4245C7.69257 14.5242 7.68754 14.6805 7.5931 14.7736C7.49866 14.8668 7.35056 14.8615 7.26232 14.7618C7.17408 14.6621 7.1791 14.5058 7.27354 14.4126C7.36798 14.3195 7.51608 14.3248 7.60432 14.4245Z" fill="#EC6B59"/>
<path d="M5.55549 14.193C5.64374 14.2927 5.63871 14.4491 5.54427 14.5422C5.44983 14.6353 5.30174 14.63 5.21349 14.5304C5.12525 14.4307 5.13027 14.2743 5.22471 14.1812C5.31915 14.088 5.46725 14.0934 5.55549 14.193Z" fill="#EC6B59"/>
<path d="M4.32502 13.8884C4.41327 13.988 4.40825 14.1444 4.3138 14.2375C4.21936 14.3307 4.07127 14.3254 3.98302 14.2257C3.89478 14.126 3.8998 13.9697 3.99424 13.8765C4.08868 13.7834 4.23678 13.7887 4.32502 13.8884Z" fill="#EC6B59"/>
<path d="M7.83186 13.615C7.9201 13.7147 7.91508 13.871 7.82064 13.9642C7.7262 14.0573 7.5781 14.052 7.48986 13.9524C7.40161 13.8527 7.40664 13.6963 7.50108 13.6032C7.59552 13.51 7.74362 13.5154 7.83186 13.615Z" fill="#EC6B59"/>
<path d="M5.19221 15.002C5.28046 15.1017 5.27543 15.258 5.18099 15.3512C5.08655 15.4443 4.93845 15.439 4.85021 15.3393C4.76197 15.2396 4.76699 15.0833 4.86143 14.9902C4.95587 14.897 5.10397 14.9023 5.19221 15.002Z" fill="#EC6B59"/>
<path d="M4.88154 14.3164C4.92614 14.3668 4.9236 14.4458 4.87586 14.4928C4.82813 14.5399 4.75328 14.5372 4.70868 14.4869C4.66408 14.4365 4.66662 14.3575 4.71436 14.3104C4.76209 14.2633 4.83694 14.266 4.88154 14.3164Z" fill="#EC6B59"/>
<path d="M3.62568 13.9305C3.67028 13.9809 3.66774 14.0599 3.62001 14.107C3.57227 14.1541 3.49742 14.1514 3.45283 14.101C3.40823 14.0506 3.41076 13.9716 3.4585 13.9245C3.50623 13.8774 3.58108 13.8801 3.62568 13.9305Z" fill="#EC6B59"/>
<path d="M8.24384 14.0476C8.28844 14.098 8.2859 14.177 8.23817 14.224C8.19044 14.2711 8.11559 14.2684 8.07099 14.2181C8.02639 14.1677 8.02893 14.0887 8.07666 14.0416C8.12439 13.9945 8.19924 13.9972 8.24384 14.0476Z" fill="#EC6B59"/>
<path d="M7.16083 13.8077C7.20543 13.8581 7.20289 13.9371 7.15516 13.9842C7.10743 14.0313 7.03258 14.0286 6.98798 13.9782C6.94338 13.9278 6.94592 13.8488 6.99365 13.8017C7.04138 13.7546 7.11623 13.7573 7.16083 13.8077Z" fill="#EC6B59"/>
<path d="M8.41474 13.3856C8.45934 13.436 8.4568 13.515 8.40907 13.5621C8.36134 13.6091 8.28649 13.6065 8.24189 13.5561C8.19729 13.5057 8.19983 13.4267 8.24756 13.3796C8.29529 13.3325 8.37014 13.3352 8.41474 13.3856Z" fill="#EC6B59"/>
<path d="M4.44714 14.5664C4.52079 14.6496 4.5166 14.7801 4.43777 14.8578C4.35895 14.9356 4.23534 14.9311 4.16168 14.8479C4.08803 14.7647 4.09222 14.6342 4.17105 14.5565C4.24987 14.4787 4.37348 14.4832 4.44714 14.5664Z" fill="#EC6B59"/>
</svg>
